<svg width="327" height="283" viewBox="0 0 327 283" fill="none" xmlns="http://www.w3.org/2000/svg">
<path d="M40.4581 136.169L34.3778 137.901L34.4189 145.642L40.5936 143.883L40.6103 154.368L34.4357 156.126L34.6335 165.646L23.5569 168.802L23.4062 159.267L17.4202 160.972L17.5708 170.507L6.44705 173.676L6.43785 164.101L0.263294 165.859L0.24645 155.376L6.32686 153.644L6.28575 145.903L0.111092 147.661L0 137.204L6.17466 135.445L6.08439 125.59L17.0667 122.462L17.2041 132.303L23.1901 130.599L23.147 120.729L34.1764 117.588L34.1725 127.47L40.3471 125.711L40.4581 136.169ZM17.268 142.774L17.3091 150.516L23.3895 148.784L23.3955 141.029L17.268 142.774Z" fill="white"/>
<path d="M135.809 135.082C132.527 140.036 128.472 144.274 123.645 147.798C118.817 151.321 113.506 153.907 107.712 155.554C103.268 156.818 98.8062 157.455 94.3304 157.465C89.9111 157.507 85.5919 157.003 81.3772 155.958C77.1914 154.858 73.1927 153.26 69.3812 151.164C65.5696 149.069 62.0829 146.554 58.924 143.617C55.7956 140.627 53.0558 137.268 50.7058 133.541C48.3861 129.759 46.5892 125.665 45.3149 121.258C44.0406 116.852 43.3765 112.435 43.3224 108.01C43.312 103.57 43.8401 99.2834 44.9069 95.1458C46.0049 90.9537 47.6104 86.9671 49.7235 83.1877C51.8361 79.4068 54.38 75.9725 57.3533 72.8834C60.357 69.7381 63.7436 67.0215 67.5146 64.7334C71.316 62.3907 75.4394 60.5872 79.8833 59.3231C85.6775 57.6764 91.5631 57.0782 97.5401 57.5297C103.505 57.9367 109.21 59.4008 114.653 61.9204L109.404 80.9456C105.81 78.7884 101.914 77.4639 97.7185 76.9749C93.5095 76.4413 89.3571 76.7577 85.2613 77.9212C81.1219 79.099 77.4699 80.9787 74.3037 83.5616C71.1361 86.1459 68.5907 89.1603 66.6632 92.6075C64.724 96.0102 63.4956 99.7493 62.9763 103.824C62.4441 107.856 62.766 111.902 63.9408 115.963C65.1142 120.024 67.004 123.624 69.6103 126.763C72.2021 129.86 75.2378 132.364 78.7129 134.275C82.1894 136.185 85.9589 137.403 90.0257 137.931C94.0911 138.457 98.1942 138.133 102.334 136.956C106.428 135.792 110.125 133.9 113.422 131.278C116.707 128.614 119.296 125.423 121.191 121.705L135.809 135.082Z" fill="white"/>
<path d="M185.868 90.9738L180.49 72.3757C179.753 69.8259 178.558 67.5709 176.906 65.6092C175.286 63.593 173.383 61.9837 171.196 60.7814C169.01 59.5791 166.624 58.8327 164.04 58.5379C161.487 58.1884 158.926 58.3797 156.356 59.1103C153.784 59.8408 151.488 61.0316 149.466 62.6812C147.476 64.2761 145.875 66.1572 144.663 68.3259C143.45 70.4932 142.674 72.8647 142.335 75.439C142.026 77.9586 142.241 80.4926 142.977 83.041L148.355 101.639L185.868 90.9738ZM215.361 122.771L196.606 128.105L191.227 109.507L153.714 120.172L159.094 138.771L140.403 144.084L124.286 88.3549C122.8 83.215 122.386 78.1182 123.048 73.0689C123.698 67.975 125.212 63.2665 127.592 58.9434C130.015 54.6074 133.212 50.8223 137.182 47.5907C141.193 44.3463 145.792 41.9863 150.978 40.5122C156.161 39.0381 161.3 38.6288 166.394 39.2846C171.531 39.9279 176.285 41.4513 180.658 43.8544C185.031 46.2576 188.854 49.4488 192.126 53.4282C195.386 57.3629 197.759 61.9017 199.246 67.0431L215.361 122.771Z" fill="white"/>
<path d="M220.866 40.7682L231.622 77.9644L250.378 72.6317C252.949 71.8997 255.23 70.7377 257.22 69.1428C259.198 67.5048 260.794 65.6021 262.005 63.4348C263.217 61.2661 263.977 58.9234 264.286 56.4037C264.627 53.8295 264.428 51.2681 263.691 48.7183C262.953 46.1699 261.76 43.9149 260.108 41.9532C258.488 39.9355 256.583 38.3267 254.397 37.125C252.21 35.9233 249.848 35.1692 247.307 34.8631C244.754 34.5136 242.193 34.7043 239.621 35.4352L220.866 40.7682ZM242.359 115.096L223.603 120.428L196.731 27.5029L234.243 16.8371C237.685 15.8586 241.128 15.3706 244.571 15.3736C248.001 15.3332 251.326 15.7438 254.545 16.605C257.796 17.4106 260.885 18.6362 263.813 20.2816C266.772 21.8716 269.457 23.8197 271.869 26.1263C274.324 28.4205 276.443 31.0205 278.226 33.9264C280.053 36.8199 281.46 39.9729 282.448 43.3856C283.921 48.4839 284.335 53.5792 283.685 58.6731C283.023 63.7239 281.482 68.4165 279.057 72.7525C276.633 77.0886 273.415 80.8781 269.403 84.124C265.433 87.3555 260.879 89.7025 255.738 91.1651L236.981 96.4978L242.359 115.096Z" fill="white"/>
<path d="M320.333 92.9254L301.577 98.258L274.704 5.33292L293.46 0L320.333 92.9254Z" fill="white"/>
<path d="M99.4677 260.614C96.1855 265.569 92.1303 269.807 87.3034 273.33C82.4752 276.854 77.1639 279.44 71.3697 281.086C66.9258 282.35 62.4644 282.988 57.9886 282.998C53.5679 283.039 49.2506 282.536 45.0348 281.492C40.85 280.39 36.8515 278.792 33.0394 276.697C29.2272 274.602 25.7414 272.086 22.5822 269.151C19.4541 266.16 16.7146 262.8 14.3638 259.074C12.0443 255.292 10.2473 251.197 8.97311 246.791C7.69881 242.384 7.03455 237.968 6.9806 233.543C6.97001 229.103 7.49824 224.816 8.56513 220.679C9.66306 216.486 11.2685 212.5 13.3817 208.72C15.4947 204.939 18.0378 201.505 21.0107 198.416C24.0147 195.271 27.4021 192.554 31.1726 190.266C34.9743 187.923 39.0971 186.12 43.541 184.856C49.3355 183.209 55.2213 182.611 61.1983 183.062C67.1636 183.469 72.8679 184.933 78.3111 187.453L73.0623 206.478C69.4682 204.321 65.5726 202.998 61.3767 202.508C57.1662 201.974 53.0153 202.29 48.9193 203.454C44.7802 204.632 41.1276 206.511 37.9612 209.094C34.7947 211.679 32.2482 214.693 30.3215 218.14C28.3824 221.543 27.1533 225.282 26.6342 229.356C26.1027 233.389 26.4241 237.434 27.5985 241.496C28.7728 245.557 30.6626 249.157 33.2681 252.296C35.8609 255.392 38.8952 257.896 42.371 259.808C45.8468 261.717 49.6176 262.935 53.6839 263.463C57.7493 263.99 61.8524 263.666 65.9903 262.488C70.0861 261.325 73.7831 259.432 77.0798 256.81C80.3649 254.147 82.9538 250.956 84.8494 247.238L99.4677 260.614Z" fill="white"/>
<path d="M180.858 197.92C182.131 202.327 182.774 206.749 182.784 211.187C182.826 215.57 182.32 219.852 181.266 224.032C180.198 228.17 178.608 232.128 176.495 235.909C174.382 239.688 171.845 243.144 168.885 246.278C165.912 249.367 162.518 252.062 158.705 254.361C154.904 256.704 150.78 258.508 146.336 259.772C141.892 261.034 137.433 261.672 132.955 261.683C128.536 261.723 124.218 261.221 120.002 260.176C115.816 259.076 111.819 257.476 108.006 255.381C104.194 253.286 100.708 250.77 97.5488 247.835C94.4204 244.844 91.6821 241.486 89.3311 237.76C87.0119 233.977 85.2149 229.883 83.94 225.476C82.6652 221.07 82.0009 216.653 81.9472 212.227C81.9371 207.789 82.465 203.501 83.5325 199.364C84.642 195.215 86.2548 191.25 88.368 187.469C90.4798 183.69 93.0237 180.255 95.997 177.165C99.0123 174.064 102.406 171.369 106.177 169.081C109.979 166.738 114.102 164.935 118.546 163.671C122.99 162.408 127.45 161.771 131.925 161.759C136.39 161.706 140.707 162.208 144.88 163.267C149.053 164.324 153.044 165.901 156.857 167.997C160.669 170.092 164.132 172.613 167.248 175.561C170.365 178.509 173.081 181.873 175.402 185.656C177.764 189.425 179.583 193.514 180.858 197.92ZM162.232 203.215C161.058 199.155 159.168 195.554 156.563 192.415C153.945 189.232 150.904 186.707 147.442 184.84C144.008 182.917 140.238 181.698 136.129 181.183C132.062 180.657 127.982 180.974 123.886 182.139C119.747 183.316 116.095 185.197 112.929 187.78C109.762 190.363 107.216 193.378 105.288 196.824C103.349 200.228 102.12 203.967 101.601 208.042C101.07 212.073 101.391 216.12 102.566 220.181C103.74 224.241 105.63 227.842 108.235 230.982C110.828 234.078 113.863 236.582 117.338 238.492C120.814 240.403 124.585 241.621 128.651 242.149C132.716 242.675 136.819 242.35 140.958 241.174C145.053 240.009 148.684 238.135 151.851 235.552C155.06 232.956 157.607 229.94 159.49 226.507C161.417 223.06 162.653 219.343 163.197 215.355C163.728 211.322 163.407 207.277 162.232 203.215Z" fill="white"/>
<path d="M273.461 221.452L253.398 227.156L199.569 176.26L217.258 237.432L198.502 242.766L171.629 149.84L191.694 144.135L245.542 195.097L227.833 133.859L246.589 128.527L273.461 221.452Z" fill="white"/>
<path d="M301.636 213.442L282.88 218.774L256.007 125.849L321.622 107.193L327 125.791L280.142 139.114L285.521 157.712L313.622 149.722L319 168.32L290.899 176.31L301.636 213.442Z" fill="white"/>
</svg>
